<mxfile host="Electron" agent="Mozilla/5.0 (Macintosh; Intel Mac OS X 10_15_7) AppleWebKit/537.36 (KHTML, like Gecko) draw.io/24.7.17 Chrome/128.0.6613.36 Electron/32.0.1 Safari/537.36" version="24.7.17">
  <diagram name="Страница — 1" id="Jy3WbxoEpjstbgvxpMyO">
    <mxGraphModel dx="2283" dy="1627" grid="1" gridSize="10" guides="1" tooltips="1" connect="1" arrows="1" fold="1" page="1" pageScale="1" pageWidth="1169" pageHeight="827" math="0" shadow="0">
      <root>
        <mxCell id="0" />
        <mxCell id="1" parent="0" />
        <mxCell id="5gY9V4qFijtGJwF-r9l1-2" value="Машина" style="swimlane;fontStyle=0;childLayout=stackLayout;horizontal=1;startSize=30;horizontalStack=0;resizeParent=1;resizeParentMax=0;resizeLast=0;collapsible=1;marginBottom=0;whiteSpace=wrap;html=1;" parent="1" vertex="1">
          <mxGeometry x="340" y="-260" width="140" height="60" as="geometry" />
        </mxCell>
        <mxCell id="5gY9V4qFijtGJwF-r9l1-3" value="Номер" style="text;strokeColor=none;fillColor=none;align=left;verticalAlign=middle;spacingLeft=4;spacingRight=4;overflow=hidden;points=[[0,0.5],[1,0.5]];portConstraint=eastwest;rotatable=0;whiteSpace=wrap;html=1;" parent="5gY9V4qFijtGJwF-r9l1-2" vertex="1">
          <mxGeometry y="30" width="140" height="30" as="geometry" />
        </mxCell>
        <mxCell id="5gY9V4qFijtGJwF-r9l1-155" value="Создает и настраивает" style="edgeStyle=orthogonalEdgeStyle;rounded=0;orthogonalLoop=1;jettySize=auto;html=1;" parent="1" source="5gY9V4qFijtGJwF-r9l1-6" target="5gY9V4qFijtGJwF-r9l1-146" edge="1">
          <mxGeometry relative="1" as="geometry" />
        </mxCell>
        <mxCell id="5gY9V4qFijtGJwF-r9l1-6" value="Клиент" style="swimlane;fontStyle=0;childLayout=stackLayout;horizontal=1;startSize=30;horizontalStack=0;resizeParent=1;resizeParentMax=0;resizeLast=0;collapsible=1;marginBottom=0;whiteSpace=wrap;html=1;" parent="1" vertex="1">
          <mxGeometry x="180" y="-50" width="140" height="60" as="geometry" />
        </mxCell>
        <mxCell id="5gY9V4qFijtGJwF-r9l1-81" value="Телефон" style="text;strokeColor=none;fillColor=none;align=left;verticalAlign=middle;spacingLeft=4;spacingRight=4;overflow=hidden;points=[[0,0.5],[1,0.5]];portConstraint=eastwest;rotatable=0;whiteSpace=wrap;html=1;" parent="5gY9V4qFijtGJwF-r9l1-6" vertex="1">
          <mxGeometry y="30" width="140" height="30" as="geometry" />
        </mxCell>
        <mxCell id="5gY9V4qFijtGJwF-r9l1-80" value="Отправляется на" style="edgeStyle=orthogonalEdgeStyle;rounded=0;orthogonalLoop=1;jettySize=auto;html=1;" parent="1" source="5gY9V4qFijtGJwF-r9l1-14" target="5gY9V4qFijtGJwF-r9l1-81" edge="1">
          <mxGeometry relative="1" as="geometry" />
        </mxCell>
        <mxCell id="5gY9V4qFijtGJwF-r9l1-14" value="Сообщение" style="swimlane;fontStyle=0;childLayout=stackLayout;horizontal=1;startSize=30;horizontalStack=0;resizeParent=1;resizeParentMax=0;resizeLast=0;collapsible=1;marginBottom=0;whiteSpace=wrap;html=1;" parent="1" vertex="1">
          <mxGeometry x="-530" y="-410" width="140" height="60" as="geometry" />
        </mxCell>
        <mxCell id="5gY9V4qFijtGJwF-r9l1-15" value="Текст" style="text;strokeColor=none;fillColor=none;align=left;verticalAlign=middle;spacingLeft=4;spacingRight=4;overflow=hidden;points=[[0,0.5],[1,0.5]];portConstraint=eastwest;rotatable=0;whiteSpace=wrap;html=1;" parent="5gY9V4qFijtGJwF-r9l1-14" vertex="1">
          <mxGeometry y="30" width="140" height="30" as="geometry" />
        </mxCell>
        <mxCell id="5gY9V4qFijtGJwF-r9l1-70" value="Происходит с" style="edgeStyle=orthogonalEdgeStyle;rounded=0;orthogonalLoop=1;jettySize=auto;html=1;" parent="1" source="5gY9V4qFijtGJwF-r9l1-33" target="5gY9V4qFijtGJwF-r9l1-2" edge="1">
          <mxGeometry relative="1" as="geometry" />
        </mxCell>
        <mxCell id="5gY9V4qFijtGJwF-r9l1-144" value="видно" style="edgeStyle=orthogonalEdgeStyle;rounded=0;orthogonalLoop=1;jettySize=auto;html=1;" parent="1" source="5gY9V4qFijtGJwF-r9l1-33" target="5gY9V4qFijtGJwF-r9l1-86" edge="1">
          <mxGeometry relative="1" as="geometry" />
        </mxCell>
        <mxCell id="5gY9V4qFijtGJwF-r9l1-33" value="Событие" style="swimlane;fontStyle=0;childLayout=stackLayout;horizontal=1;startSize=30;horizontalStack=0;resizeParent=1;resizeParentMax=0;resizeLast=0;collapsible=1;marginBottom=0;whiteSpace=wrap;html=1;" parent="1" vertex="1">
          <mxGeometry x="30" y="-425" width="190" height="90" as="geometry" />
        </mxCell>
        <mxCell id="5gY9V4qFijtGJwF-r9l1-34" value="Время" style="text;strokeColor=none;fillColor=none;align=left;verticalAlign=middle;spacingLeft=4;spacingRight=4;overflow=hidden;points=[[0,0.5],[1,0.5]];portConstraint=eastwest;rotatable=0;whiteSpace=wrap;html=1;" parent="5gY9V4qFijtGJwF-r9l1-33" vertex="1">
          <mxGeometry y="30" width="190" height="30" as="geometry" />
        </mxCell>
        <mxCell id="5gY9V4qFijtGJwF-r9l1-77" value="Адрес" style="text;strokeColor=none;fillColor=none;align=left;verticalAlign=middle;spacingLeft=4;spacingRight=4;overflow=hidden;points=[[0,0.5],[1,0.5]];portConstraint=eastwest;rotatable=0;whiteSpace=wrap;html=1;" parent="5gY9V4qFijtGJwF-r9l1-33" vertex="1">
          <mxGeometry y="60" width="190" height="30" as="geometry" />
        </mxCell>
        <mxCell id="5gY9V4qFijtGJwF-r9l1-132" value="Выделяется" style="edgeStyle=orthogonalEdgeStyle;rounded=0;orthogonalLoop=1;jettySize=auto;html=1;" parent="1" source="5gY9V4qFijtGJwF-r9l1-86" target="5gY9V4qFijtGJwF-r9l1-121" edge="1">
          <mxGeometry relative="1" as="geometry" />
        </mxCell>
        <mxCell id="5gY9V4qFijtGJwF-r9l1-86" value="Сылка на событие видео" style="swimlane;fontStyle=0;childLayout=stackLayout;horizontal=1;startSize=30;horizontalStack=0;resizeParent=1;resizeParentMax=0;resizeLast=0;collapsible=1;marginBottom=0;whiteSpace=wrap;html=1;" parent="1" vertex="1">
          <mxGeometry x="-210" y="-440" width="140" height="120" as="geometry" />
        </mxCell>
        <mxCell id="5gY9V4qFijtGJwF-r9l1-87" value="Время начала" style="text;strokeColor=none;fillColor=none;align=left;verticalAlign=middle;spacingLeft=4;spacingRight=4;overflow=hidden;points=[[0,0.5],[1,0.5]];portConstraint=eastwest;rotatable=0;whiteSpace=wrap;html=1;" parent="5gY9V4qFijtGJwF-r9l1-86" vertex="1">
          <mxGeometry y="30" width="140" height="30" as="geometry" />
        </mxCell>
        <mxCell id="5gY9V4qFijtGJwF-r9l1-105" value="Адрес ссылки" style="text;strokeColor=none;fillColor=none;align=left;verticalAlign=middle;spacingLeft=4;spacingRight=4;overflow=hidden;points=[[0,0.5],[1,0.5]];portConstraint=eastwest;rotatable=0;whiteSpace=wrap;html=1;" parent="5gY9V4qFijtGJwF-r9l1-86" vertex="1">
          <mxGeometry y="60" width="140" height="30" as="geometry" />
        </mxCell>
        <mxCell id="5gY9V4qFijtGJwF-r9l1-88" value="Время конца" style="text;strokeColor=none;fillColor=none;align=left;verticalAlign=middle;spacingLeft=4;spacingRight=4;overflow=hidden;points=[[0,0.5],[1,0.5]];portConstraint=eastwest;rotatable=0;whiteSpace=wrap;html=1;" parent="5gY9V4qFijtGJwF-r9l1-86" vertex="1">
          <mxGeometry y="90" width="140" height="30" as="geometry" />
        </mxCell>
        <mxCell id="5gY9V4qFijtGJwF-r9l1-95" value="Адрес" style="swimlane;fontStyle=0;childLayout=stackLayout;horizontal=1;startSize=30;horizontalStack=0;resizeParent=1;resizeParentMax=0;resizeLast=0;collapsible=1;marginBottom=0;whiteSpace=wrap;html=1;" parent="1" vertex="1">
          <mxGeometry x="-500" y="-670" width="140" height="90" as="geometry" />
        </mxCell>
        <mxCell id="5gY9V4qFijtGJwF-r9l1-96" value="Улица" style="text;strokeColor=none;fillColor=none;align=left;verticalAlign=middle;spacingLeft=4;spacingRight=4;overflow=hidden;points=[[0,0.5],[1,0.5]];portConstraint=eastwest;rotatable=0;whiteSpace=wrap;html=1;" parent="5gY9V4qFijtGJwF-r9l1-95" vertex="1">
          <mxGeometry y="30" width="140" height="30" as="geometry" />
        </mxCell>
        <mxCell id="5gY9V4qFijtGJwF-r9l1-97" value="..." style="text;strokeColor=none;fillColor=none;align=left;verticalAlign=middle;spacingLeft=4;spacingRight=4;overflow=hidden;points=[[0,0.5],[1,0.5]];portConstraint=eastwest;rotatable=0;whiteSpace=wrap;html=1;" parent="5gY9V4qFijtGJwF-r9l1-95" vertex="1">
          <mxGeometry y="60" width="140" height="30" as="geometry" />
        </mxCell>
        <mxCell id="5gY9V4qFijtGJwF-r9l1-131" value="Запрашивается" style="edgeStyle=orthogonalEdgeStyle;rounded=0;orthogonalLoop=1;jettySize=auto;html=1;" parent="1" source="5gY9V4qFijtGJwF-r9l1-121" target="5gY9V4qFijtGJwF-r9l1-125" edge="1">
          <mxGeometry relative="1" as="geometry" />
        </mxCell>
        <mxCell id="5gY9V4qFijtGJwF-r9l1-121" value="Видеопоток" style="swimlane;fontStyle=0;childLayout=stackLayout;horizontal=1;startSize=30;horizontalStack=0;resizeParent=1;resizeParentMax=0;resizeLast=0;collapsible=1;marginBottom=0;whiteSpace=wrap;html=1;" parent="1" vertex="1">
          <mxGeometry x="-210" y="-540" width="140" height="60" as="geometry" />
        </mxCell>
        <mxCell id="5gY9V4qFijtGJwF-r9l1-122" value="Идентификатор" style="text;strokeColor=none;fillColor=none;align=left;verticalAlign=middle;spacingLeft=4;spacingRight=4;overflow=hidden;points=[[0,0.5],[1,0.5]];portConstraint=eastwest;rotatable=0;whiteSpace=wrap;html=1;" parent="5gY9V4qFijtGJwF-r9l1-121" vertex="1">
          <mxGeometry y="30" width="140" height="30" as="geometry" />
        </mxCell>
        <mxCell id="5gY9V4qFijtGJwF-r9l1-125" value="Камера" style="swimlane;fontStyle=0;childLayout=stackLayout;horizontal=1;startSize=30;horizontalStack=0;resizeParent=1;resizeParentMax=0;resizeLast=0;collapsible=1;marginBottom=0;whiteSpace=wrap;html=1;" parent="1" vertex="1">
          <mxGeometry x="-210" y="-670" width="140" height="60" as="geometry" />
        </mxCell>
        <mxCell id="5gY9V4qFijtGJwF-r9l1-126" value="IP адрес" style="text;strokeColor=none;fillColor=none;align=left;verticalAlign=middle;spacingLeft=4;spacingRight=4;overflow=hidden;points=[[0,0.5],[1,0.5]];portConstraint=eastwest;rotatable=0;whiteSpace=wrap;html=1;" parent="5gY9V4qFijtGJwF-r9l1-125" vertex="1">
          <mxGeometry y="30" width="140" height="30" as="geometry" />
        </mxCell>
        <mxCell id="5gY9V4qFijtGJwF-r9l1-129" value="Установлена" style="edgeStyle=orthogonalEdgeStyle;rounded=0;orthogonalLoop=1;jettySize=auto;html=1;" parent="1" source="5gY9V4qFijtGJwF-r9l1-126" target="5gY9V4qFijtGJwF-r9l1-95" edge="1">
          <mxGeometry relative="1" as="geometry" />
        </mxCell>
        <mxCell id="5gY9V4qFijtGJwF-r9l1-134" value="Содержит" style="edgeStyle=orthogonalEdgeStyle;rounded=0;orthogonalLoop=1;jettySize=auto;html=1;" parent="1" source="5gY9V4qFijtGJwF-r9l1-15" target="5gY9V4qFijtGJwF-r9l1-105" edge="1">
          <mxGeometry relative="1" as="geometry" />
        </mxCell>
        <mxCell id="5gY9V4qFijtGJwF-r9l1-145" value="Запрашивает" style="edgeStyle=orthogonalEdgeStyle;rounded=0;orthogonalLoop=1;jettySize=auto;html=1;entryX=1;entryY=0.25;entryDx=0;entryDy=0;" parent="1" source="5gY9V4qFijtGJwF-r9l1-81" target="5gY9V4qFijtGJwF-r9l1-121" edge="1">
          <mxGeometry relative="1" as="geometry">
            <Array as="points">
              <mxPoint x="490" y="10" />
              <mxPoint x="490" y="-525" />
            </Array>
          </mxGeometry>
        </mxCell>
        <mxCell id="5gY9V4qFijtGJwF-r9l1-146" value="Настройка сообщений" style="swimlane;fontStyle=0;childLayout=stackLayout;horizontal=1;startSize=30;horizontalStack=0;resizeParent=1;resizeParentMax=0;resizeLast=0;collapsible=1;marginBottom=0;whiteSpace=wrap;html=1;" parent="1" vertex="1">
          <mxGeometry x="80" y="-250" width="140" height="60" as="geometry" />
        </mxCell>
        <mxCell id="5gY9V4qFijtGJwF-r9l1-147" value="Включено" style="text;strokeColor=none;fillColor=none;align=left;verticalAlign=middle;spacingLeft=4;spacingRight=4;overflow=hidden;points=[[0,0.5],[1,0.5]];portConstraint=eastwest;rotatable=0;whiteSpace=wrap;html=1;" parent="5gY9V4qFijtGJwF-r9l1-146" vertex="1">
          <mxGeometry y="30" width="140" height="30" as="geometry" />
        </mxCell>
        <mxCell id="5gY9V4qFijtGJwF-r9l1-166" value="содержится в" style="edgeStyle=orthogonalEdgeStyle;rounded=0;orthogonalLoop=1;jettySize=auto;html=1;" parent="1" source="5gY9V4qFijtGJwF-r9l1-3" target="5gY9V4qFijtGJwF-r9l1-146" edge="1">
          <mxGeometry relative="1" as="geometry" />
        </mxCell>
        <mxCell id="5gY9V4qFijtGJwF-r9l1-167" value="для" style="edgeStyle=orthogonalEdgeStyle;rounded=0;orthogonalLoop=1;jettySize=auto;html=1;" parent="1" source="5gY9V4qFijtGJwF-r9l1-147" target="5gY9V4qFijtGJwF-r9l1-6" edge="1">
          <mxGeometry relative="1" as="geometry" />
        </mxCell>
        <mxCell id="5gY9V4qFijtGJwF-r9l1-177" value="" style="swimlane;startSize=0;" parent="1" vertex="1">
          <mxGeometry x="-600" y="-460" width="1160" height="530" as="geometry" />
        </mxCell>
        <mxCell id="5gY9V4qFijtGJwF-r9l1-179" value="" style="swimlane;startSize=0;" parent="1" vertex="1">
          <mxGeometry x="-560" y="-730" width="750" height="260" as="geometry" />
        </mxCell>
      </root>
    </mxGraphModel>
  </diagram>
</mxfile>
